<svg xmlns="http://www.w3.org/2000/svg" version="1.1" xmlns:xlink="http://www.w3.org/1999/xlink" xmlns:svgjs="http://svgjs.dev/svgjs" width="1500" height="1500" viewBox="0 0 1500 1500"><g transform="matrix(1,0,0,1,-0.323615160350073,-0.3236151603499593)"><svg viewBox="0 0 343 343" data-background-color="#ede1d1" preserveAspectRatio="xMidYMid meet" height="1500" width="1500" xmlns="http://www.w3.org/2000/svg" xmlns:xlink="http://www.w3.org/1999/xlink"><g id="tight-bounds" transform="matrix(1,0,0,1,0.0740000000000407,0.07400000000001228)"><svg viewBox="0 0 342.85155851775386 342.85155851775386" height="342.85155851775386" width="342.85155851775386"><g><svg></svg></g><g><svg viewBox="0 0 342.85155851775386 342.85155851775386" height="342.85155851775386" width="342.85155851775386"><g><path d="M0 171.426c0-94.676 76.75-171.426 171.426-171.426 94.676 0 171.426 76.75 171.426 171.426 0 94.676-76.75 171.426-171.426 171.426-94.676 0-171.426-76.75-171.426-171.426zM171.426 340.143c93.18 0 168.717-75.537 168.717-168.717 0-93.18-75.537-168.717-168.717-168.718-93.18 0-168.717 75.537-168.718 168.718 0 93.18 75.537 168.717 168.718 168.717z" data-fill-palette-color="tertiary" fill="#6a704c" stroke="transparent"></path><ellipse rx="164.56874808852186" ry="164.56874808852186" cx="171.42577925887693" cy="171.42577925887693" fill="#6a704c" stroke="transparent" stroke-width="0" fill-opacity="1" data-fill-palette-color="tertiary"></ellipse></g><g transform="matrix(1,0,0,1,64.84655864529837,132.1111654798782)"><svg viewBox="0 0 213.1584412271571 78.62922755799747" height="78.62922755799747" width="213.1584412271571"><g><svg viewBox="0 0 213.1584412271571 78.62922755799747" height="78.62922755799747" width="213.1584412271571"><g><svg viewBox="0 0 213.1584412271571 78.62922755799747" height="78.62922755799747" width="213.1584412271571"><g transform="matrix(1,0,0,1,0,48.59601707900546)"><svg viewBox="0 0 213.1584412271571 30.033210478992" height="30.033210478992" width="213.1584412271571"><g id="textblocktransform"><svg viewBox="0 0 213.1584412271571 30.033210478992" height="30.033210478992" width="213.1584412271571" id="textblock"><g><svg viewBox="0 0 213.1584412271571 30.033210478992" height="30.033210478992" width="213.1584412271571"><g transform="matrix(1,0,0,1,0,0)"><svg width="213.1584412271571" viewBox="1.25 -42.94 309.44 43.599999999999994" height="30.033210478992" data-palette-color="#ede1d1"><path d="M21.04-17.14L16.38 0 8.96 0 1.25-28.2 9.5-28.2 14.33-8.42 18.36-28.2 25.78-28.2 30.71-7.89 35.47-28.2 41.19-28.2 32.64 0 25.22 0 21.04-17.14ZM73.46-28.2L73.46 0 65.21 0 65.21-3.37Q63.74-1.37 61.68-0.4 59.62 0.56 57.15 0.56L57.15 0.56Q53.93 0.56 51.39-0.59 48.85-1.73 47.09-3.72 45.33-5.71 44.41-8.4 43.48-11.08 43.48-14.16L43.48-14.16Q43.48-17.24 44.41-19.92 45.33-22.61 47.09-24.6 48.85-26.59 51.39-27.73 53.93-28.88 57.15-28.88L57.15-28.88Q58.79-28.88 60.26-28.39 61.74-27.91 62.97-27.01 64.21-26.12 65.15-24.87 66.09-23.61 66.62-22.07L66.62-22.07 70.29-28.2 73.46-28.2ZM65.16-14.16L65.16-14.16Q65.16-15.26 65.05-16.48 64.94-17.7 64.67-18.9 64.4-20.09 63.93-21.18 63.45-22.27 62.71-23.11 61.96-23.95 60.91-24.44 59.86-24.93 58.47-24.93L58.47-24.93Q57.08-24.93 56.05-24.43 55.03-23.93 54.29-23.08 53.56-22.24 53.09-21.14 52.61-20.04 52.34-18.85 52.07-17.65 51.96-16.44 51.85-15.23 51.85-14.16L51.85-14.16Q51.85-13.09 51.96-11.87 52.07-10.64 52.34-9.45 52.61-8.25 53.09-7.15 53.56-6.05 54.29-5.21 55.03-4.37 56.05-3.87 57.08-3.37 58.47-3.37L58.47-3.37Q59.74-3.37 60.73-3.89 61.72-4.42 62.46-5.3 63.21-6.18 63.72-7.3 64.23-8.42 64.55-9.62 64.87-10.82 65.01-12 65.16-13.18 65.16-14.16ZM88.59-32.62L88.59 0 80.34 0 80.34-41.19 83.52-41.19 88.59-32.62ZM102.26-13.38L102.26-13.38Q103.78-13.04 105.29-12.84 106.8-12.65 108.34-12.65L108.34-12.65Q109.95-12.65 111.33-12.95 112.71-13.26 113.73-13.98 114.74-14.7 115.32-15.89 115.91-17.09 115.91-18.87L115.91-18.87Q115.91-20.31 115.52-21.51 115.13-22.71 114.36-23.56 113.59-24.41 112.47-24.89 111.35-25.37 109.86-25.37L109.86-25.37Q108.46-25.37 107.35-24.85 106.24-24.34 105.4-23.47 104.56-22.61 103.96-21.46 103.36-20.31 102.97-19.07 102.58-17.82 102.41-16.55 102.24-15.28 102.24-14.16L102.24-14.16Q102.24-13.96 102.24-13.77 102.24-13.57 102.26-13.38ZM122.6-18.95L122.6-18.95Q122.6-17.21 122.04-15.86 121.48-14.5 120.51-13.48 119.55-12.45 118.28-11.74 117.01-11.04 115.57-10.58 114.13-10.13 112.6-9.94 111.08-9.74 109.64-9.74L109.64-9.74Q107.81-9.74 106.02-10 104.24-10.25 102.51-10.82L102.51-10.82Q102.78-9.2 103.36-7.75 103.95-6.3 104.92-5.21 105.9-4.13 107.33-3.49 108.76-2.86 110.71-2.86L110.71-2.86Q112-2.86 113.18-3.25 114.35-3.64 115.32-4.35 116.3-5.05 117.05-6.03 117.79-7.01 118.25-8.2L118.25-8.2 121.82-6.88Q121.01-4.96 119.61-3.55 118.21-2.15 116.44-1.23 114.67-0.32 112.68 0.12 110.69 0.56 108.73 0.56L108.73 0.56Q105.51 0.56 102.78-0.52 100.04-1.61 98.06-3.56 96.09-5.52 94.96-8.23 93.84-10.94 93.84-14.16L93.84-14.16Q93.84-17.38 94.96-20.09 96.09-22.8 98.06-24.76 100.04-26.71 102.78-27.8 105.51-28.88 108.73-28.88L108.73-28.88Q110.3-28.88 111.93-28.66 113.57-28.44 115.1-27.97 116.64-27.49 118.01-26.73 119.38-25.98 120.39-24.87 121.4-23.75 122-22.29 122.6-20.83 122.6-18.95ZM134.54-13.38L134.54-13.38Q136.05-13.04 137.56-12.84 139.08-12.65 140.62-12.65L140.62-12.65Q142.23-12.65 143.61-12.95 144.99-13.26 146-13.98 147.01-14.7 147.6-15.89 148.18-17.09 148.18-18.87L148.18-18.87Q148.18-20.31 147.79-21.51 147.4-22.71 146.63-23.56 145.86-24.41 144.74-24.89 143.62-25.37 142.13-25.37L142.13-25.37Q140.74-25.37 139.63-24.85 138.52-24.34 137.67-23.47 136.83-22.61 136.23-21.46 135.63-20.31 135.24-19.07 134.85-17.82 134.68-16.55 134.51-15.28 134.51-14.16L134.51-14.16Q134.51-13.96 134.51-13.77 134.51-13.57 134.54-13.38ZM154.87-18.95L154.87-18.95Q154.87-17.21 154.31-15.86 153.75-14.5 152.79-13.48 151.82-12.45 150.55-11.74 149.28-11.04 147.84-10.58 146.4-10.13 144.88-9.94 143.35-9.74 141.91-9.74L141.91-9.74Q140.08-9.74 138.3-10 136.51-10.25 134.78-10.82L134.78-10.82Q135.05-9.2 135.63-7.75 136.22-6.3 137.2-5.21 138.17-4.13 139.6-3.49 141.03-2.86 142.98-2.86L142.98-2.86Q144.28-2.86 145.45-3.25 146.62-3.64 147.6-4.35 148.57-5.05 149.32-6.03 150.06-7.01 150.53-8.2L150.53-8.2 154.09-6.88Q153.29-4.96 151.88-3.55 150.48-2.15 148.71-1.23 146.94-0.32 144.95 0.12 142.96 0.56 141.01 0.56L141.01 0.56Q137.78 0.56 135.05-0.52 132.31-1.61 130.34-3.56 128.36-5.52 127.24-8.23 126.11-10.94 126.11-14.16L126.11-14.16Q126.11-17.38 127.24-20.09 128.36-22.8 130.34-24.76 132.31-26.71 135.05-27.8 137.78-28.88 141.01-28.88L141.01-28.88Q142.57-28.88 144.2-28.66 145.84-28.44 147.38-27.97 148.92-27.49 150.28-26.73 151.65-25.98 152.66-24.87 153.68-23.75 154.27-22.29 154.87-20.83 154.87-18.95ZM188.44-38.57L188.44 0 185.27 0 181.6-6.13Q181.07-4.59 180.13-3.34 179.19-2.1 177.95-1.21 176.72-0.32 175.24 0.17 173.77 0.66 172.13 0.66L172.13 0.66Q168.91 0.66 166.37-0.49 163.83-1.64 162.07-3.63 160.31-5.62 159.39-8.3 158.46-10.99 158.46-14.06L158.46-14.06Q158.46-17.14 159.39-19.82 160.31-22.51 162.07-24.49 163.83-26.46 166.37-27.61 168.91-28.76 172.13-28.76L172.13-28.76Q174.6-28.76 176.66-27.81 178.72-26.86 180.19-24.83L180.19-24.83 180.19-38.57 188.44-38.57ZM180.14-14.06L180.14-14.06Q180.14-15.04 179.99-16.21 179.85-17.38 179.53-18.58 179.21-19.78 178.7-20.9 178.19-22.02 177.44-22.9 176.7-23.78 175.71-24.3 174.72-24.83 173.45-24.83L173.45-24.83Q172.06-24.83 171.03-24.33 170.01-23.83 169.27-22.99 168.54-22.14 168.07-21.04 167.59-19.95 167.32-18.75 167.05-17.55 166.94-16.35 166.83-15.14 166.83-14.06L166.83-14.06Q166.83-12.99 166.94-11.78 167.05-10.57 167.32-9.38 167.59-8.18 168.07-7.07 168.54-5.96 169.27-5.11 170.01-4.27 171.03-3.77 172.06-3.27 173.45-3.27L173.45-3.27Q174.84-3.27 175.89-3.76 176.94-4.25 177.69-5.09 178.43-5.93 178.91-7.02 179.38-8.11 179.65-9.31 179.92-10.52 180.03-11.74 180.14-12.96 180.14-14.06ZM235.82-39.79L235.82-39.79 231.16-32.08Q231.09-33.01 230.82-34.22 230.55-35.42 229.93-36.5 229.3-37.57 228.22-38.32 227.13-39.06 225.45-39.06L225.45-39.06Q223.71-39.06 222.66-38.38 221.61-37.7 221.05-36.33 220.49-34.96 220.3-32.93 220.1-30.91 220.1-28.22L220.1-28.22 228.64-28.22 228.64-24.95 220.1-24.95 220.1 0 211.82 0 211.82-24.95 206.7-24.95 206.7-28.22 211.82-28.22Q211.82-32.1 212.65-34.89 213.48-37.67 215.17-39.47 216.85-41.26 219.4-42.1 221.96-42.94 225.37-42.94L225.37-42.94Q227.42-42.94 229.05-42.66 230.67-42.38 231.93-41.93 233.19-41.48 234.14-40.92 235.09-40.36 235.82-39.79ZM260.26-28.2L260.26 0 252.01 0 252.01-3.37Q250.54-1.37 248.48-0.4 246.42 0.56 243.95 0.56L243.95 0.56Q240.73 0.56 238.19-0.59 235.65-1.73 233.89-3.72 232.13-5.71 231.21-8.4 230.28-11.08 230.28-14.16L230.28-14.16Q230.28-17.24 231.21-19.92 232.13-22.61 233.89-24.6 235.65-26.59 238.19-27.73 240.73-28.88 243.95-28.88L243.95-28.88Q245.59-28.88 247.06-28.39 248.54-27.91 249.77-27.01 251.01-26.12 251.95-24.87 252.89-23.61 253.42-22.07L253.42-22.07 257.08-28.2 260.26-28.2ZM251.96-14.16L251.96-14.16Q251.96-15.26 251.85-16.48 251.74-17.7 251.47-18.9 251.2-20.09 250.72-21.18 250.25-22.27 249.5-23.11 248.76-23.95 247.71-24.44 246.66-24.93 245.27-24.93L245.27-24.93Q243.88-24.93 242.85-24.43 241.83-23.93 241.09-23.08 240.36-22.24 239.88-21.14 239.41-20.04 239.14-18.85 238.87-17.65 238.76-16.44 238.65-15.23 238.65-14.16L238.65-14.16Q238.65-13.09 238.76-11.87 238.87-10.64 239.14-9.45 239.41-8.25 239.88-7.15 240.36-6.05 241.09-5.21 241.83-4.37 242.85-3.87 243.88-3.37 245.27-3.37L245.27-3.37Q246.54-3.37 247.53-3.89 248.52-4.42 249.26-5.3 250-6.18 250.52-7.3 251.03-8.42 251.35-9.62 251.66-10.82 251.81-12 251.96-13.18 251.96-14.16ZM295.56-38.57L295.56 0 292.38 0 288.72-6.13Q288.19-4.59 287.25-3.34 286.31-2.1 285.07-1.21 283.84-0.32 282.36 0.17 280.89 0.66 279.25 0.66L279.25 0.66Q276.03 0.66 273.49-0.49 270.95-1.64 269.19-3.63 267.43-5.62 266.51-8.3 265.58-10.99 265.58-14.06L265.58-14.06Q265.58-17.14 266.51-19.82 267.43-22.51 269.19-24.49 270.95-26.46 273.49-27.61 276.03-28.76 279.25-28.76L279.25-28.76Q281.72-28.76 283.78-27.81 285.84-26.86 287.31-24.83L287.31-24.83 287.31-38.57 295.56-38.57ZM287.26-14.06L287.26-14.06Q287.26-15.04 287.11-16.21 286.96-17.38 286.65-18.58 286.33-19.78 285.82-20.9 285.3-22.02 284.56-22.9 283.82-23.78 282.83-24.3 281.84-24.83 280.57-24.83L280.57-24.83Q279.18-24.83 278.15-24.33 277.13-23.83 276.39-22.99 275.66-22.14 275.19-21.04 274.71-19.95 274.44-18.75 274.17-17.55 274.06-16.35 273.95-15.14 273.95-14.06L273.95-14.06Q273.95-12.99 274.06-11.78 274.17-10.57 274.44-9.38 274.71-8.18 275.19-7.07 275.66-5.96 276.39-5.11 277.13-4.27 278.15-3.77 279.18-3.27 280.57-3.27L280.57-3.27Q281.96-3.27 283.01-3.76 284.06-4.25 284.8-5.09 285.55-5.93 286.02-7.02 286.5-8.11 286.77-9.31 287.04-10.52 287.15-11.74 287.26-12.96 287.26-14.06ZM310.69-32.62L310.69 0 302.44 0 302.44-41.19 305.61-41.19 310.69-32.62Z" opacity="1" transform="matrix(1,0,0,1,0,0)" fill="#ede1d1" class="wordmark-text-0" data-fill-palette-color="quaternary" id="text-0"></path></svg></g></svg></g></svg></g></svg></g><g transform="matrix(1,0,0,1,85.82627217259508,0)"><svg viewBox="0 0 41.50589688196695 41.50589688196695" height="41.50589688196695" width="41.50589688196695"><g><svg xmlns="http://www.w3.org/2000/svg" xmlns:xlink="http://www.w3.org/1999/xlink" xml:space="preserve" version="1.0" style="shape-rendering:geometricPrecision;text-rendering:geometricPrecision;image-rendering:optimizeQuality;" viewBox="5 5 90 90" x="0" y="0" fill-rule="evenodd" clip-rule="evenodd" height="41.50589688196695" width="41.50589688196695" class="icon-icon-0" data-fill-palette-color="quaternary" id="icon-0"><g fill="#ede1d1" data-fill-palette-color="quaternary"><path class="" d="M83 15C83 10 79 5 73 5 68 5 63 10 63 15 63 21 68 25 73 25 79 25 83 21 83 15M15 26L18 25 30 46H39C38 46 38 46 38 45 38 43 40 41 42 41H56L62 34C64 32 66 29 70 29H75C80 29 84 33 84 37V63C82 66 80 67 77 67H86L89 35H95L91 72V95H85V73H66V95H60V70H56V95H48V76L36 93C35 94 34 95 32 95S27 92 27 90C27 89 28 88 28 87L45 63C46 62 47 62 48 62V59H13V95H5V52H56V59L64 57S67 56 67 54V42L61 49H28z" fill="#ede1d1" data-fill-palette-color="quaternary"></path></g></svg></g></svg></g><g></g></svg></g></svg></g></svg></g></svg></g><defs></defs></svg><rect width="342.85155851775386" height="342.85155851775386" fill="none" stroke="none" visibility="hidden"></rect></g></svg></g></svg>